<mxfile host="app.diagrams.net" agent="Mozilla/5.0" version="24.7.17">
  <diagram name="アプリケーション処理フロー" id="app-data-flow">
    <mxGraphModel dx="1434" dy="794" grid="1" gridSize="10" guides="1" tooltips="1" connect="1" arrows="1" fold="1" page="1" pageScale="1" pageWidth="1169" pageHeight="827" math="0" shadow="0">
      <root>
        <mxCell id="0" />
        <mxCell id="1" parent="0" />

        <!-- Title -->
        <mxCell id="title" value="Polibaseアプリケーション処理フローとデータ関係図" style="text;html=1;align=center;verticalAlign=middle;whiteSpace=wrap;rounded=0;fontSize=20;fontStyle=1;" vertex="1" parent="1">
          <mxGeometry x="400" y="20" width="400" height="40" as="geometry" />
        </mxCell>

        <!-- Processing Nodes -->
        <!-- Web Scraping -->
        <mxCell id="proc-web-scrape" value="Web議事録&lt;br&gt;スクレイピング処理&lt;br&gt;(scrape-minutes)" style="rounded=1;whiteSpace=wrap;html=1;fillColor=#dae8fc;strokeColor=#6c8ebf;fontStyle=1;" vertex="1" parent="1">
          <mxGeometry x="40" y="100" width="140" height="60" as="geometry" />
        </mxCell>

        <!-- Minutes Division -->
        <mxCell id="proc-minutes-divide" value="議事録分割処理&lt;br&gt;(process-minutes)" style="rounded=1;whiteSpace=wrap;html=1;fillColor=#dae8fc;strokeColor=#6c8ebf;fontStyle=1;" vertex="1" parent="1">
          <mxGeometry x="220" y="100" width="140" height="60" as="geometry" />
        </mxCell>

        <!-- Speaker Extraction -->
        <mxCell id="proc-speaker-extract" value="スピーカー抽出処理&lt;br&gt;(extract-speakers)" style="rounded=1;whiteSpace=wrap;html=1;fillColor=#dae8fc;strokeColor=#6c8ebf;fontStyle=1;" vertex="1" parent="1">
          <mxGeometry x="400" y="100" width="140" height="60" as="geometry" />
        </mxCell>

        <!-- Speaker Matching -->
        <mxCell id="proc-speaker-match" value="スピーカー・政治家&lt;br&gt;マッチング処理&lt;br&gt;(update-speakers)" style="rounded=1;whiteSpace=wrap;html=1;fillColor=#dae8fc;strokeColor=#6c8ebf;fontStyle=1;" vertex="1" parent="1">
          <mxGeometry x="580" y="100" width="140" height="60" as="geometry" />
        </mxCell>

        <!-- Politician Scraping -->
        <mxCell id="proc-politician-scrape" value="政治家情報&lt;br&gt;スクレイピング処理&lt;br&gt;(scrape-politicians)" style="rounded=1;whiteSpace=wrap;html=1;fillColor=#f8cecc;strokeColor=#b85450;fontStyle=1;" vertex="1" parent="1">
          <mxGeometry x="40" y="320" width="140" height="60" as="geometry" />
        </mxCell>

        <!-- Conference Member Extraction -->
        <mxCell id="proc-conf-extract" value="議会メンバー&lt;br&gt;抽出処理&lt;br&gt;(extract-conference-members)" style="rounded=1;whiteSpace=wrap;html=1;fillColor=#fff2cc;strokeColor=#d6b656;fontStyle=1;" vertex="1" parent="1">
          <mxGeometry x="760" y="320" width="180" height="60" as="geometry" />
        </mxCell>

        <!-- Conference Member Matching -->
        <mxCell id="proc-conf-match" value="議会メンバー&lt;br&gt;マッチング処理&lt;br&gt;(match-conference-members)" style="rounded=1;whiteSpace=wrap;html=1;fillColor=#fff2cc;strokeColor=#d6b656;fontStyle=1;" vertex="1" parent="1">
          <mxGeometry x="960" y="320" width="180" height="60" as="geometry" />
        </mxCell>

        <!-- Create Affiliations -->
        <mxCell id="proc-create-affil" value="議会所属作成処理&lt;br&gt;(create-affiliations)" style="rounded=1;whiteSpace=wrap;html=1;fillColor=#fff2cc;strokeColor=#d6b656;fontStyle=1;" vertex="1" parent="1">
          <mxGeometry x="1020" y="420" width="140" height="60" as="geometry" />
        </mxCell>

        <!-- Data Objects -->
        <!-- Meetings -->
        <mxCell id="obj-meetings" value="Meetings&lt;br&gt;・url&lt;br&gt;・gcs_pdf_uri&lt;br&gt;・gcs_text_uri" style="shape=document;whiteSpace=wrap;html=1;boundedLbl=1;fillColor=#e1d5e7;strokeColor=#9673a6;" vertex="1" parent="1">
          <mxGeometry x="60" y="200" width="100" height="80" as="geometry" />
        </mxCell>

        <!-- Minutes -->
        <mxCell id="obj-minutes" value="Minutes&lt;br&gt;・meeting_id&lt;br&gt;・url" style="shape=document;whiteSpace=wrap;html=1;boundedLbl=1;fillColor=#e1d5e7;strokeColor=#9673a6;" vertex="1" parent="1">
          <mxGeometry x="240" y="200" width="100" height="80" as="geometry" />
        </mxCell>

        <!-- Conversations -->
        <mxCell id="obj-conversations" value="Conversations&lt;br&gt;・speaker_name&lt;br&gt;・comment&lt;br&gt;・speaker_id" style="shape=document;whiteSpace=wrap;html=1;boundedLbl=1;fillColor=#e1d5e7;strokeColor=#9673a6;" vertex="1" parent="1">
          <mxGeometry x="380" y="200" width="120" height="80" as="geometry" />
        </mxCell>

        <!-- Speakers -->
        <mxCell id="obj-speakers" value="Speakers&lt;br&gt;・name&lt;br&gt;・type&lt;br&gt;・is_politician" style="shape=document;whiteSpace=wrap;html=1;boundedLbl=1;fillColor=#e1d5e7;strokeColor=#9673a6;" vertex="1" parent="1">
          <mxGeometry x="520" y="200" width="100" height="80" as="geometry" />
        </mxCell>

        <!-- Politicians -->
        <mxCell id="obj-politicians" value="Politicians&lt;br&gt;・name&lt;br&gt;・political_party_id&lt;br&gt;・speaker_id&lt;br&gt;・position&lt;br&gt;・prefecture" style="shape=document;whiteSpace=wrap;html=1;boundedLbl=1;fillColor=#e1d5e7;strokeColor=#9673a6;" vertex="1" parent="1">
          <mxGeometry x="380" y="420" width="120" height="100" as="geometry" />
        </mxCell>

        <!-- Political Parties -->
        <mxCell id="obj-parties" value="PoliticalParties&lt;br&gt;・name&lt;br&gt;・members_list_url" style="shape=document;whiteSpace=wrap;html=1;boundedLbl=1;fillColor=#e1d5e7;strokeColor=#9673a6;" vertex="1" parent="1">
          <mxGeometry x="220" y="320" width="120" height="80" as="geometry" />
        </mxCell>

        <!-- Conferences -->
        <mxCell id="obj-conferences" value="Conferences&lt;br&gt;・name&lt;br&gt;・members_introduction_url" style="shape=document;whiteSpace=wrap;html=1;boundedLbl=1;fillColor=#e1d5e7;strokeColor=#9673a6;" vertex="1" parent="1">
          <mxGeometry x="800" y="200" width="160" height="80" as="geometry" />
        </mxCell>

        <!-- ExtractedConferenceMembers -->
        <mxCell id="obj-extracted-members" value="ExtractedConferenceMembers&lt;br&gt;・extracted_name&lt;br&gt;・extracted_role&lt;br&gt;・matched_politician_id&lt;br&gt;・matching_status" style="shape=document;whiteSpace=wrap;html=1;boundedLbl=1;fillColor=#e1d5e7;strokeColor=#9673a6;" vertex="1" parent="1">
          <mxGeometry x="790" y="420" width="180" height="100" as="geometry" />
        </mxCell>

        <!-- PoliticianAffiliations -->
        <mxCell id="obj-affiliations" value="PoliticianAffiliations&lt;br&gt;・politician_id&lt;br&gt;・conference_id&lt;br&gt;・role&lt;br&gt;・start_date" style="shape=document;whiteSpace=wrap;html=1;boundedLbl=1;fillColor=#e1d5e7;strokeColor=#9673a6;" vertex="1" parent="1">
          <mxGeometry x="620" y="540" width="140" height="90" as="geometry" />
        </mxCell>

        <!-- Arrows showing data flow -->
        <!-- Web scraping creates Meetings -->
        <mxCell id="arrow1" style="edgeStyle=orthogonalEdgeStyle;rounded=0;orthogonalLoop=1;jettySize=auto;html=1;strokeWidth=2;strokeColor=#FF0000;" edge="1" parent="1" source="proc-web-scrape" target="obj-meetings">
          <mxGeometry relative="1" as="geometry" />
        </mxCell>
        <mxCell id="arrow1-label" value="作成" style="edgeLabel;html=1;align=center;verticalAlign=middle;resizable=0;points=[];fontColor=#FF0000;" vertex="1" connectable="0" parent="arrow1">
          <mxGeometry x="-0.2" y="1" relative="1" as="geometry">
            <mxPoint as="offset" />
          </mxGeometry>
        </mxCell>

        <!-- Meetings to Minutes division -->
        <mxCell id="arrow2" style="edgeStyle=orthogonalEdgeStyle;rounded=0;orthogonalLoop=1;jettySize=auto;html=1;strokeWidth=2;" edge="1" parent="1" source="obj-meetings" target="proc-minutes-divide">
          <mxGeometry relative="1" as="geometry">
            <Array as="points">
              <mxPoint x="110" y="130" />
            </Array>
          </mxGeometry>
        </mxCell>
        <mxCell id="arrow2-label" value="読込" style="edgeLabel;html=1;align=center;verticalAlign=middle;resizable=0;points=[];" vertex="1" connectable="0" parent="arrow2">
          <mxGeometry x="-0.2" y="1" relative="1" as="geometry">
            <mxPoint as="offset" />
          </mxGeometry>
        </mxCell>

        <!-- Minutes division creates Minutes and Conversations -->
        <mxCell id="arrow3" style="edgeStyle=orthogonalEdgeStyle;rounded=0;orthogonalLoop=1;jettySize=auto;html=1;strokeWidth=2;strokeColor=#FF0000;" edge="1" parent="1" source="proc-minutes-divide" target="obj-minutes">
          <mxGeometry relative="1" as="geometry" />
        </mxCell>
        <mxCell id="arrow3-label" value="作成" style="edgeLabel;html=1;align=center;verticalAlign=middle;resizable=0;points=[];fontColor=#FF0000;" vertex="1" connectable="0" parent="arrow3">
          <mxGeometry x="-0.2" y="1" relative="1" as="geometry">
            <mxPoint as="offset" />
          </mxGeometry>
        </mxCell>

        <mxCell id="arrow4" style="edgeStyle=orthogonalEdgeStyle;rounded=0;orthogonalLoop=1;jettySize=auto;html=1;strokeWidth=2;strokeColor=#FF0000;" edge="1" parent="1" source="proc-minutes-divide" target="obj-conversations">
          <mxGeometry relative="1" as="geometry">
            <Array as="points">
              <mxPoint x="320" y="240" />
            </Array>
          </mxGeometry>
        </mxCell>
        <mxCell id="arrow4-label" value="作成" style="edgeLabel;html=1;align=center;verticalAlign=middle;resizable=0;points=[];fontColor=#FF0000;" vertex="1" connectable="0" parent="arrow4">
          <mxGeometry x="-0.2" y="1" relative="1" as="geometry">
            <mxPoint as="offset" />
          </mxGeometry>
        </mxCell>

        <!-- Extract speakers from conversations -->
        <mxCell id="arrow5" style="edgeStyle=orthogonalEdgeStyle;rounded=0;orthogonalLoop=1;jettySize=auto;html=1;strokeWidth=2;" edge="1" parent="1" source="obj-conversations" target="proc-speaker-extract">
          <mxGeometry relative="1" as="geometry">
            <Array as="points">
              <mxPoint x="440" y="180" />
              <mxPoint x="470" y="180" />
            </Array>
          </mxGeometry>
        </mxCell>
        <mxCell id="arrow5-label" value="読込" style="edgeLabel;html=1;align=center;verticalAlign=middle;resizable=0;points=[];" vertex="1" connectable="0" parent="arrow5">
          <mxGeometry x="-0.2" y="1" relative="1" as="geometry">
            <mxPoint as="offset" />
          </mxGeometry>
        </mxCell>

        <!-- Speaker extraction creates Speakers and updates Conversations -->
        <mxCell id="arrow6" style="edgeStyle=orthogonalEdgeStyle;rounded=0;orthogonalLoop=1;jettySize=auto;html=1;strokeWidth=2;strokeColor=#FF0000;" edge="1" parent="1" source="proc-speaker-extract" target="obj-speakers">
          <mxGeometry relative="1" as="geometry">
            <Array as="points">
              <mxPoint x="470" y="190" />
              <mxPoint x="570" y="190" />
            </Array>
          </mxGeometry>
        </mxCell>
        <mxCell id="arrow6-label" value="作成" style="edgeLabel;html=1;align=center;verticalAlign=middle;resizable=0;points=[];fontColor=#FF0000;" vertex="1" connectable="0" parent="arrow6">
          <mxGeometry x="-0.2" y="1" relative="1" as="geometry">
            <mxPoint as="offset" />
          </mxGeometry>
        </mxCell>

        <mxCell id="arrow7" style="edgeStyle=orthogonalEdgeStyle;rounded=0;orthogonalLoop=1;jettySize=auto;html=1;strokeWidth=2;strokeColor=#0000FF;dashed=1;" edge="1" parent="1" source="proc-speaker-extract" target="obj-conversations">
          <mxGeometry relative="1" as="geometry">
            <Array as="points">
              <mxPoint x="470" y="240" />
            </Array>
          </mxGeometry>
        </mxCell>
        <mxCell id="arrow7-label" value="更新" style="edgeLabel;html=1;align=center;verticalAlign=middle;resizable=0;points=[];fontColor=#0000FF;" vertex="1" connectable="0" parent="arrow7">
          <mxGeometry x="-0.2" y="1" relative="1" as="geometry">
            <mxPoint as="offset" />
          </mxGeometry>
        </mxCell>

        <!-- Speaker matching updates -->
        <mxCell id="arrow8" style="edgeStyle=orthogonalEdgeStyle;rounded=0;orthogonalLoop=1;jettySize=auto;html=1;strokeWidth=2;" edge="1" parent="1" source="obj-speakers" target="proc-speaker-match">
          <mxGeometry relative="1" as="geometry">
            <Array as="points">
              <mxPoint x="570" y="130" />
            </Array>
          </mxGeometry>
        </mxCell>

        <mxCell id="arrow9" style="edgeStyle=orthogonalEdgeStyle;rounded=0;orthogonalLoop=1;jettySize=auto;html=1;strokeWidth=2;" edge="1" parent="1" source="obj-politicians" target="proc-speaker-match">
          <mxGeometry relative="1" as="geometry">
            <Array as="points">
              <mxPoint x="650" y="470" />
              <mxPoint x="650" y="130" />
            </Array>
          </mxGeometry>
        </mxCell>
        <mxCell id="arrow9-label" value="読込" style="edgeLabel;html=1;align=center;verticalAlign=middle;resizable=0;points=[];" vertex="1" connectable="0" parent="arrow9">
          <mxGeometry x="-0.2" y="1" relative="1" as="geometry">
            <mxPoint as="offset" />
          </mxGeometry>
        </mxCell>

        <mxCell id="arrow10" style="edgeStyle=orthogonalEdgeStyle;rounded=0;orthogonalLoop=1;jettySize=auto;html=1;strokeWidth=2;strokeColor=#0000FF;dashed=1;" edge="1" parent="1" source="proc-speaker-match" target="obj-conversations">
          <mxGeometry relative="1" as="geometry">
            <Array as="points">
              <mxPoint x="650" y="260" />
              <mxPoint x="440" y="260" />
            </Array>
          </mxGeometry>
        </mxCell>
        <mxCell id="arrow10-label" value="更新" style="edgeLabel;html=1;align=center;verticalAlign=middle;resizable=0;points=[];fontColor=#0000FF;" vertex="1" connectable="0" parent="arrow10">
          <mxGeometry x="-0.2" y="1" relative="1" as="geometry">
            <mxPoint as="offset" />
          </mxGeometry>
        </mxCell>

        <!-- Politician scraping -->
        <mxCell id="arrow11" style="edgeStyle=orthogonalEdgeStyle;rounded=0;orthogonalLoop=1;jettySize=auto;html=1;strokeWidth=2;" edge="1" parent="1" source="obj-parties" target="proc-politician-scrape">
          <mxGeometry relative="1" as="geometry">
            <Array as="points">
              <mxPoint x="110" y="360" />
            </Array>
          </mxGeometry>
        </mxCell>
        <mxCell id="arrow11-label" value="URL読込" style="edgeLabel;html=1;align=center;verticalAlign=middle;resizable=0;points=[];" vertex="1" connectable="0" parent="arrow11">
          <mxGeometry x="-0.2" y="1" relative="1" as="geometry">
            <mxPoint as="offset" />
          </mxGeometry>
        </mxCell>

        <mxCell id="arrow12" style="edgeStyle=orthogonalEdgeStyle;rounded=0;orthogonalLoop=1;jettySize=auto;html=1;strokeWidth=2;strokeColor=#FF0000;" edge="1" parent="1" source="proc-politician-scrape" target="obj-politicians">
          <mxGeometry relative="1" as="geometry">
            <Array as="points">
              <mxPoint x="110" y="470" />
            </Array>
          </mxGeometry>
        </mxCell>
        <mxCell id="arrow12-label" value="作成/更新" style="edgeLabel;html=1;align=center;verticalAlign=middle;resizable=0;points=[];fontColor=#FF0000;" vertex="1" connectable="0" parent="arrow12">
          <mxGeometry x="-0.2" y="1" relative="1" as="geometry">
            <mxPoint as="offset" />
          </mxGeometry>
        </mxCell>

        <!-- Conference member extraction -->
        <mxCell id="arrow13" style="edgeStyle=orthogonalEdgeStyle;rounded=0;orthogonalLoop=1;jettySize=auto;html=1;strokeWidth=2;" edge="1" parent="1" source="obj-conferences" target="proc-conf-extract">
          <mxGeometry relative="1" as="geometry">
            <Array as="points">
              <mxPoint x="880" y="300" />
              <mxPoint x="850" y="300" />
            </Array>
          </mxGeometry>
        </mxCell>
        <mxCell id="arrow13-label" value="URL読込" style="edgeLabel;html=1;align=center;verticalAlign=middle;resizable=0;points=[];" vertex="1" connectable="0" parent="arrow13">
          <mxGeometry x="-0.2" y="1" relative="1" as="geometry">
            <mxPoint as="offset" />
          </mxGeometry>
        </mxCell>

        <mxCell id="arrow14" style="edgeStyle=orthogonalEdgeStyle;rounded=0;orthogonalLoop=1;jettySize=auto;html=1;strokeWidth=2;strokeColor=#FF0000;" edge="1" parent="1" source="proc-conf-extract" target="obj-extracted-members">
          <mxGeometry relative="1" as="geometry">
            <Array as="points">
              <mxPoint x="850" y="400" />
              <mxPoint x="880" y="400" />
            </Array>
          </mxGeometry>
        </mxCell>
        <mxCell id="arrow14-label" value="作成" style="edgeLabel;html=1;align=center;verticalAlign=middle;resizable=0;points=[];fontColor=#FF0000;" vertex="1" connectable="0" parent="arrow14">
          <mxGeometry x="-0.2" y="1" relative="1" as="geometry">
            <mxPoint as="offset" />
          </mxGeometry>
        </mxCell>

        <!-- Conference member matching -->
        <mxCell id="arrow15" style="edgeStyle=orthogonalEdgeStyle;rounded=0;orthogonalLoop=1;jettySize=auto;html=1;strokeWidth=2;" edge="1" parent="1" source="obj-extracted-members" target="proc-conf-match">
          <mxGeometry relative="1" as="geometry">
            <Array as="points">
              <mxPoint x="920" y="470" />
              <mxPoint x="1050" y="470" />
              <mxPoint x="1050" y="380" />
            </Array>
          </mxGeometry>
        </mxCell>

        <mxCell id="arrow16" style="edgeStyle=orthogonalEdgeStyle;rounded=0;orthogonalLoop=1;jettySize=auto;html=1;strokeWidth=2;" edge="1" parent="1" source="obj-politicians" target="proc-conf-match">
          <mxGeometry relative="1" as="geometry">
            <Array as="points">
              <mxPoint x="440" y="550" />
              <mxPoint x="1050" y="550" />
            </Array>
          </mxGeometry>
        </mxCell>
        <mxCell id="arrow16-label" value="読込" style="edgeLabel;html=1;align=center;verticalAlign=middle;resizable=0;points=[];" vertex="1" connectable="0" parent="arrow16">
          <mxGeometry x="-0.2" y="1" relative="1" as="geometry">
            <mxPoint as="offset" />
          </mxGeometry>
        </mxCell>

        <mxCell id="arrow17" style="edgeStyle=orthogonalEdgeStyle;rounded=0;orthogonalLoop=1;jettySize=auto;html=1;strokeWidth=2;strokeColor=#0000FF;dashed=1;" edge="1" parent="1" source="proc-conf-match" target="obj-extracted-members">
          <mxGeometry relative="1" as="geometry">
            <Array as="points">
              <mxPoint x="1000" y="470" />
            </Array>
          </mxGeometry>
        </mxCell>
        <mxCell id="arrow17-label" value="更新" style="edgeLabel;html=1;align=center;verticalAlign=middle;resizable=0;points=[];fontColor=#0000FF;" vertex="1" connectable="0" parent="arrow17">
          <mxGeometry x="-0.2" y="1" relative="1" as="geometry">
            <mxPoint as="offset" />
          </mxGeometry>
        </mxCell>

        <!-- Create affiliations -->
        <mxCell id="arrow18" style="edgeStyle=orthogonalEdgeStyle;rounded=0;orthogonalLoop=1;jettySize=auto;html=1;strokeWidth=2;" edge="1" parent="1" source="obj-extracted-members" target="proc-create-affil">
          <mxGeometry relative="1" as="geometry">
            <Array as="points">
              <mxPoint x="980" y="450" />
            </Array>
          </mxGeometry>
        </mxCell>
        <mxCell id="arrow18-label" value="matched読込" style="edgeLabel;html=1;align=center;verticalAlign=middle;resizable=0;points=[];" vertex="1" connectable="0" parent="arrow18">
          <mxGeometry x="-0.2" y="1" relative="1" as="geometry">
            <mxPoint as="offset" />
          </mxGeometry>
        </mxCell>

        <mxCell id="arrow19" style="edgeStyle=orthogonalEdgeStyle;rounded=0;orthogonalLoop=1;jettySize=auto;html=1;strokeWidth=2;strokeColor=#FF0000;" edge="1" parent="1" source="proc-create-affil" target="obj-affiliations">
          <mxGeometry relative="1" as="geometry">
            <Array as="points">
              <mxPoint x="1090" y="585" />
            </Array>
          </mxGeometry>
        </mxCell>
        <mxCell id="arrow19-label" value="作成" style="edgeLabel;html=1;align=center;verticalAlign=middle;resizable=0;points=[];fontColor=#FF0000;" vertex="1" connectable="0" parent="arrow19">
          <mxGeometry x="-0.2" y="1" relative="1" as="geometry">
            <mxPoint as="offset" />
          </mxGeometry>
        </mxCell>

        <!-- Legend -->
        <mxCell id="legend-box" value="" style="rounded=1;whiteSpace=wrap;html=1;fillColor=none;strokeColor=#000000;" vertex="1" parent="1">
          <mxGeometry x="40" y="680" width="400" height="120" as="geometry" />
        </mxCell>

        <mxCell id="legend-title" value="凡例" style="text;html=1;align=center;verticalAlign=middle;whiteSpace=wrap;rounded=0;fontSize=16;fontStyle=1;" vertex="1" parent="1">
          <mxGeometry x="190" y="690" width="100" height="30" as="geometry" />
        </mxCell>

        <mxCell id="legend-process1" value="議事録関連処理" style="rounded=1;whiteSpace=wrap;html=1;fillColor=#dae8fc;strokeColor=#6c8ebf;" vertex="1" parent="1">
          <mxGeometry x="60" y="730" width="100" height="30" as="geometry" />
        </mxCell>

        <mxCell id="legend-process2" value="政治家情報処理" style="rounded=1;whiteSpace=wrap;html=1;fillColor=#f8cecc;strokeColor=#b85450;" vertex="1" parent="1">
          <mxGeometry x="170" y="730" width="100" height="30" as="geometry" />
        </mxCell>

        <mxCell id="legend-process3" value="議会紐付け処理" style="rounded=1;whiteSpace=wrap;html=1;fillColor=#fff2cc;strokeColor=#d6b656;" vertex="1" parent="1">
          <mxGeometry x="280" y="730" width="100" height="30" as="geometry" />
        </mxCell>

        <mxCell id="legend-create" value="作成" style="endArrow=classic;html=1;strokeWidth=2;strokeColor=#FF0000;" edge="1" parent="1">
          <mxGeometry width="50" height="50" relative="1" as="geometry">
            <mxPoint x="60" y="780" as="sourcePoint" />
            <mxPoint x="110" y="780" as="targetPoint" />
          </mxGeometry>
        </mxCell>

        <mxCell id="legend-update" value="更新" style="endArrow=classic;html=1;strokeWidth=2;strokeColor=#0000FF;dashed=1;" edge="1" parent="1">
          <mxGeometry width="50" height="50" relative="1" as="geometry">
            <mxPoint x="150" y="780" as="sourcePoint" />
            <mxPoint x="200" y="780" as="targetPoint" />
          </mxGeometry>
        </mxCell>

        <mxCell id="legend-read" value="読込" style="endArrow=classic;html=1;strokeWidth=2;" edge="1" parent="1">
          <mxGeometry width="50" height="50" relative="1" as="geometry">
            <mxPoint x="240" y="780" as="sourcePoint" />
            <mxPoint x="290" y="780" as="targetPoint" />
          </mxGeometry>
        </mxCell>

        <mxCell id="legend-data" value="データ" style="shape=document;whiteSpace=wrap;html=1;boundedLbl=1;fillColor=#e1d5e7;strokeColor=#9673a6;" vertex="1" parent="1">
          <mxGeometry x="320" y="760" width="60" height="30" as="geometry" />
        </mxCell>

        <!-- Process Groups -->
        <mxCell id="group-minutes" value="" style="rounded=1;whiteSpace=wrap;html=1;fillColor=#dae8fc;strokeColor=#6c8ebf;dashed=1;opacity=20;" vertex="1" parent="1">
          <mxGeometry x="30" y="80" width="700" height="230" as="geometry" />
        </mxCell>

        <mxCell id="group-minutes-label" value="議事録処理グループ" style="text;html=1;align=center;verticalAlign=middle;whiteSpace=wrap;rounded=0;fontSize=14;fontStyle=1;fontColor=#6c8ebf;" vertex="1" parent="1">
          <mxGeometry x="300" y="290" width="160" height="20" as="geometry" />
        </mxCell>

        <mxCell id="group-politician" value="" style="rounded=1;whiteSpace=wrap;html=1;fillColor=#f8cecc;strokeColor=#b85450;dashed=1;opacity=20;" vertex="1" parent="1">
          <mxGeometry x="30" y="310" width="320" height="90" as="geometry" />
        </mxCell>

        <mxCell id="group-politician-label" value="政治家情報処理グループ" style="text;html=1;align=center;verticalAlign=middle;whiteSpace=wrap;rounded=0;fontSize=14;fontStyle=1;fontColor=#b85450;" vertex="1" parent="1">
          <mxGeometry x="110" y="380" width="160" height="20" as="geometry" />
        </mxCell>

        <mxCell id="group-conference" value="" style="rounded=1;whiteSpace=wrap;html=1;fillColor=#fff2cc;strokeColor=#d6b656;dashed=1;opacity=20;" vertex="1" parent="1">
          <mxGeometry x="750" y="190" width="420" height="350" as="geometry" />
        </mxCell>

        <mxCell id="group-conference-label" value="議会紐付け処理グループ" style="text;html=1;align=center;verticalAlign=middle;whiteSpace=wrap;rounded=0;fontSize=14;fontStyle=1;fontColor=#d6b656;" vertex="1" parent="1">
          <mxGeometry x="890" y="510" width="160" height="20" as="geometry" />
        </mxCell>

      </root>
    </mxGraphModel>
  </diagram>
</mxfile>
